/* XPM */
static char *afa0af6657ce4d4bfa22e96ecb7de0e0mu2NZDrGBkvIBc5C[] = {
/* columns rows colors chars-per-pixel */
"68 34 163 2 ",
"   c #3B2724",
".  c #4D2720",
"X  c #4A2923",
"o  c #462C28",
"O  c #482D28",
"+  c #562F27",
"@  c #5E2E25",
"#  c #4E322D",
"$  c #5A3027",
"%  c #53322C",
"&  c #5B332B",
"*  c #5F382E",
"=  c #603227",
"-  c #6E3326",
";  c #64352A",
":  c #6A3529",
">  c #63382E",
",  c #6C392D",
"<  c #753727",
"1  c #7C3A27",
"2  c #753C2D",
"3  c #7A3E2D",
"4  c #633C33",
"5  c #6B3D31",
"6  c #713F32",
"7  c #793F30",
"8  c #7E412F",
"9  c #6E4135",
"0  c #6D443B",
"q  c #734134",
"w  c #7D4334",
"e  c #734539",
"r  c #7A4739",
"t  c #75493D",
"y  c #7C4A3C",
"u  c #7B4F44",
"i  c #833E2A",
"p  c #83422F",
"a  c #8B432D",
"s  c #93452C",
"d  c #99472C",
"f  c #96482F",
"g  c #9C492E",
"h  c #844533",
"j  c #8B4732",
"k  c #874937",
"l  c #8C4935",
"z  c #864C3C",
"x  c #8B4D3A",
"c  c #904730",
"v  c #944C34",
"b  c #9C4D32",
"n  c #924E39",
"m  c #984F38",
"M  c #8E513E",
"N  c #9D5136",
"B  c #94523C",
"V  c #9C543B",
"C  c #9F583F",
"Z  c #A34C2F",
"A  c #A84D2E",
"S  c #A24E32",
"D  c #A84F30",
"F  c #A45235",
"G  c #AC5435",
"H  c #AF5837",
"J  c #A3553A",
"K  c #AA5739",
"L  c #A5593D",
"P  c #AC5A3C",
"I  c #B25534",
"U  c #B45936",
"Y  c #BB5C37",
"T  c #B35C3B",
"R  c #BA5E3A",
"E  c #B7603F",
"W  c #BC623E",
"Q  c #C2643E",
"!  c #C8663D",
"~  c #854F40",
"^  c #835144",
"/  c #8C5342",
"(  c #86574C",
")  c #8A574A",
"_  c #8C584A",
"`  c #945542",
"'  c #9B5741",
"]  c #955845",
"[  c #9C5A44",
"{  c #935A4A",
"}  c #9E5E4B",
"|  c #8D5D52",
" . c #905F53",
".. c #A35C43",
"X. c #AB5E42",
"o. c #A25F49",
"O. c #B15F41",
"+. c #9D604E",
"@. c #976356",
"#. c #9C6353",
"$. c #9C675A",
"%. c #A66047",
"&. c #AD6145",
"*. c #A4614C",
"=. c #AC644B",
"-. c #AE684F",
";. c #B46243",
":. c #BB6543",
">. c #BE6847",
",. c #B3664A",
"<. c #B86748",
"1. c #B5694C",
"2. c #BC6B4C",
"3. c #A36552",
"4. c #A96753",
"5. c #A56856",
"6. c #AC6955",
"7. c #A36959",
"8. c #AB6D5B",
"9. c #B16750",
"0. c #B36B53",
"q. c #BB6E52",
"w. c #B26E59",
"e. c #BD7155",
"r. c #B2715D",
"t. c #BC745B",
"y. c #A56E61",
"u. c #AE7260",
"i. c #B27463",
"p. c #BB7761",
"a. c #BB7B69",
"s. c #C16641",
"d. c #C36945",
"f. c #C96C45",
"g. c #C36D4A",
"h. c #CA6E49",
"j. c #D16E45",
"k. c #CD724D",
"l. c #D5764F",
"z. c #C26F50",
"x. c #C47353",
"c. c #CC7552",
"v. c #CE7855",
"b. c #C27559",
"n. c #C4785D",
"m. c #CD7B5C",
"M. c #D17651",
"N. c #D47954",
"B. c #DB7D56",
"V. c #D37D5A",
"C. c #DB7F58",
"Z. c #CE7E60",
"A. c #D07F60",
"S. c #DB825D",
"D. c #CD8166",
"F. c #C7816B",
"G. c #CF846B",
"H. c #D48364",
"J. c #DB8563",
"K. c #DE8864",
"L. c #D5896D",
"P. c #D98A6C",
"I. c #DB8E71",
/* pixels */
"*.J ] 5.w.i.3...g Z J ) { ( | ) ~ u x ' X.L V ../ / x K ..h.M.l.>.o.{ 3.6.5.R T O.z.` n J ..X.X.X.s.<.f.s.K v c l X.P ,.A.K.C.2.g.v.c.2.",
"} C ] 7.6.t.4.O.G I P [ *.{ { _ z u n C J V V n r r x J X.h.>.>.;.X.o.o.O.X.T X.J ..' V O.,.,.<.O.f.O.W O.J v i v O.T K j.V.M.O.>.g.f.f.",
"` S b S ..f.Q f.q.d.s.Q >.=.;.[ z z P T >.=.K v 7 k J :.h.l.h.s.h.k.d.;.T T R X...S K X.b.C.V.S.z.s.I U O.X.F i v X.K D W q.h.R :.0.S.B.",
"V K K K V T R :.h.h.d.:.f.h.c.[ k k J ....[ ..V j c n ' [ T >.t.1.X.,.,.X.7.i.u.8. .w.t.z.9.4.q.,.4...P ..K ' k j v ' ..I S T =.t.b.x.0.",
"J P V K V P T d.h.d.T ;.W <.2.] x n F V B B B ' J X.m ' ' K X.9.X.X.X.=.9.w.p.u.w.o.e.e.q.=.} =.o.o.[ ..' X.` 7 k j x n S J O.4.n.b.z.5.",
"[ :.P o.} x.;.>.q.O.G G H [ [ x / / H b m V V L d.M.o.o.4.,.=.<.X.P ,.p.A.H.J.0.;.h.h.<.;.9.,.O.o.<.O.X.' q.} 6 ~ n j m J X.x.M.N.q.0.9.",
"l N V K ..X.T T H G T } ..C K L J J K B J F K P L D n ....;.d.c.>.O.g.M.k.O.:.T R O.<.q.z.2.X.O.J G O.O.:.c.<.h x k n m v K h.>.:.K K E ",
"m S m H K P ;.T G G P o...K T ..L L J m C P R s.P G v J X.;.2.c.z.,.>.h.h.X.T T R P O.<.g.d.P T X.2.9.z.g.d.X.7 m J J c S :.M.z.>.X.I Y ",
"V G b H ,.M.z.k.>.:.Q s.O.X.s.T P M u x N K T ! ! W C ;.P H ,.e.O.;.2.c.Q E s.>.Q I U W d.s.R :.t.G.Z.P.b.O.m i X.O.I g G q.I.L.I.n.Y I ",
"] ] x G T Q <.:.s.O.O.X.K J G J P l j m P ;.<.:.L E ;.E P h.M.k.b.z.d.d.d.2.g.;.W ;.T :.R :.O.H K :.9.q.X.K ..} =.o.4.=.,.o.0.9.W P F E ",
"] / B T H T >.O.G J ..[ ' m m V T m v l J :.>.,.C P E g.2.S.M.S.c.x.d.O.f.x.1.%.>.q.<.:.T T X.H X.O.:.>.K H K ..,.<.q.o.q...<.,.G G G E ",
"P H A <.e.c.b.d.>. .| |  .@.6.1.q.+.{ B m ..=...C L <.S.S.M.2.g.>.l.A.n.S.D.a.8.Z.v.m.e.X.F S X.n.k.R O.X.T S c P 2.c.>.O.F I G U :.T I ",
"P H K :.>.h.>.T T P P *.O.:.<.X.&.L C ..J J P P L S N G P T P P P =.b.e.b.=.>.W R ;.;.T U T &.d.>.h.O.;.<.O.O.J S J U X.O.V X.X.:.>.2.,.",
"F T P G S T 2.q.P T Y P T T :.O.E L J L V J E E L F N D N F K K K ..2.0.e.9.g.E Q :.W T P d.1.2.O.O.X.O.<.:.T J S S F J X...,.1.2.2.q.c.",
"*.;.T T ..r.F.F.i.:.Y U W X.W Y T m ' ' B / V F S P =.E F I ;.E D G T 0.m.D.m.0.Q Y Y ,.i.n.p.i.5.U K :.<.O.I D R <.h.:.O.O.h.f.k.g.d.j.",
"&.T P T P &.;.q.v.z.,.K Y E W K L L ..%.@.$.6.&.[ P C C +.P P K K ` ,.=.1.3.q.2.:.T P s.>.:...1.,.O.X.4.t.b.0.o.c.m.N.,.z.q.c.q.g.c.k.M.",
"P Y K P P P K :.g.g.x.P E T E b L L ;.P 7.u.0.1.L E C L -.P V F P C L -.E +.1.W W 1.-.1.W W L 1.O.R L =.9.0.=.%.x.t.x.&.2.1.>.=.<.2.<.:.",
"C U I U E d.U U P E ! f.E %.K b S L E W >.;.P W E W E >.W W P J g B M +.P T P %.-.1.r.y.=.W W E ..G Z D L ;.T U %.5.<.Y W L T G P %.%.H ",
"v g V &.&.1.*.5.5.4.+.+.=.C +.B H K H L +.+.+.+.%.,.&.1.*...%.%.V v V C *.] b C J C P =.P P L q.,.2...L &.;...&.>.;.;.%.g.:.W %.1.q.2.=.",
"m K %.=...%.#.$.5.%.V V %.+.%.[ W E E L +.+.+.+.*.1.1.1.3.%.*.P C N L L L ] N L P =.E L E 0.1.<.;.;.' J ..&.%.&.;.E Y L :.:.W %.-.-.,.*.",
"J d.z.1./ ] [ +.) N g g J V W E E V E T E L F A F H P W W W L S J G N P E E W N E W >.P E h.>.0...F F H X.>.&.,.0.1.f.f.s.-.q.>.6.@.w.e.",
"..L ` J B N ` B v v C N d f S N b n P J P L J N v F f b f I F S N J g g F L H G F J L P E P P P J S V P P P L o.+.L P -.1.1.q.3.8.5.6.#.",
"' [ M B v m ` V f b V N d d b m F N H C E E H J N g d g N G F P P P F g H L H G H N C L P P E P J F J P K T ....C %.&.0.q.q.,.+.4.=.,.3.",
"M ..' { / *.o.+.M s s a b C E Y G v G P H L H W Y W f G G H [ w.q.q.0.P E E E +.E T T L L K P e.o.G S P *.t.e.%.4.0.e.e.0.L D S G C 1.<.",
"` C l n l B l V C J b N N v L n N n N v N N S F N T L K c N N P C ..P N L V L L P L P -.&.&.3.w.3.3.B N B V C C %.%.%.] L V V V ,.-.1.3.",
"[ C l N l s v F J F b N f l C k x l N v V b N J N W E E b b F T C L 1.P P V F J L L &.&.E -.*.0.=.4.] N f b l B C L %.C J n V V &.&.;.,.",
"l l ' 6.M g b v l f a s j x v v N x c V F v N g d S f H H F V P P P E P g s g [ q.2.2.[ N S s S N F N S v N S a a N H T P l F Z Z f G H ",
"3 a l b p s a s c c l h ` B B M [ ] C n b c s f v N b N V L b J J L J J H M l k [ [ F c f f a f f f x M M M y M +.%.B v J J F j d d g a ",
"< 1 1 g a s c N b v c z [ m B M ..[ ..M L f f v B J m c x B 8 v x N f v C / y 8 v M f b f v v d c d M +._ M y M C +.B v J V N p a a a i ",
"8 - < a j s Z G k a 1 p f p d N V x +.*.+.+.B %.P ,.M z x ^ t a 8 h N B n l +.] L &.:.P n m f S m P K E n N D V b c D F N p a a p < , < ",
"2 q , < 8 p 8 p 8 q 1 8 B n m k y M +./ y y z N B C M B x z y 8 j l c k l 8 v B F V / M V B r x n v v V b S S l b b f q q < 8 9 8 8 1 1 ",
"; , ; : : 2 , < q : : q l l p q 0 y M z 0 9 r N l B B +.z z e r B k 8 y h 8 j v N j t M M V y z v c x M b g b l b S b q 8 q 8 q < q 2 q ",
"X . . $ = q 8 , # ; : : < $ ; - 8 ; ; p f : ; a k q 9 p 2 8 9 n C C M 9 9 8 p q - 9 8 8 w x h 8 k V b C B j n m n k c p b 8 8 8 q : < , ",
"      o % & & % # & & % $ o + # $ $ $ $ ; : : 9 * & & ; $ & > 9 9 9 0 9 * 9 9 = 9 q 9 9 9 9 9 9 e r 9 r r e 9 9 9 9 9 $ 9 & * & : $ & & "
};
